<svg width="1439" height="330" viewBox="0 0 1439 330" fill="none" xmlns="http://www.w3.org/2000/svg">
<path d="M320.257 259.001C320.257 260.918 319.734 262.311 318.689 263.182C317.644 263.879 316.25 264.489 314.508 265.012C313.462 265.186 311.633 265.534 309.02 266.057C306.581 266.58 303.532 267.015 299.873 267.364C296.215 267.886 292.121 268.322 287.591 268.67C283.061 269.019 278.27 269.193 273.218 269.193C265.378 269.193 257.103 268.061 248.392 265.796C239.681 263.531 231.667 259.437 224.35 253.513C217.207 247.416 211.196 239.227 206.318 228.949C201.614 218.67 199.262 205.429 199.262 189.227V150.812C199.262 134.435 201.614 121.107 206.318 110.828C211.196 100.375 217.207 92.1871 224.35 86.2637C231.667 80.3403 239.681 76.3333 248.392 74.2426C257.103 71.9778 265.378 70.8454 273.218 70.8454C278.27 70.8454 283.061 71.0196 287.591 71.368C292.121 71.7165 296.215 72.152 299.873 72.6747C303.532 73.0231 306.581 73.4587 309.02 73.9813C311.633 74.3297 313.462 74.6782 314.508 75.0266C316.25 75.5493 317.644 76.2461 318.689 77.1172C319.734 77.8141 320.257 79.1208 320.257 81.0372V98.5461C320.257 100.114 319.821 101.421 318.95 102.466C318.253 103.511 316.947 104.034 315.03 104.034H314.508C312.243 103.86 309.455 103.686 306.145 103.511C303.009 103.163 299.612 102.902 295.953 102.727C292.295 102.553 288.549 102.379 284.716 102.205C280.883 102.03 277.225 101.943 273.741 101.943C268.34 101.943 263.287 102.727 258.584 104.295C253.88 105.863 249.873 108.564 246.562 112.396C243.252 116.229 240.639 121.282 238.723 127.553C236.806 133.825 235.848 141.578 235.848 150.812V189.227C235.848 198.286 236.806 205.952 238.723 212.224C240.639 218.495 243.252 223.548 246.562 227.381C249.873 231.213 253.88 234.001 258.584 235.743C263.287 237.311 268.34 238.095 273.741 238.095C277.225 238.095 280.883 238.008 284.716 237.834C288.549 237.659 292.295 237.485 295.953 237.311C299.612 237.137 303.009 236.963 306.145 236.788C309.455 236.44 312.243 236.179 314.508 236.004H315.03C316.947 236.004 318.253 236.527 318.95 237.572C319.821 238.618 320.257 239.924 320.257 241.492V259.001ZM469.599 204.122C469.599 213.53 468.206 222.241 465.418 230.255C462.805 238.095 458.885 244.89 453.658 250.639C448.432 256.388 441.899 260.918 434.059 264.228C426.393 267.538 417.421 269.193 407.142 269.193C396.863 269.193 387.804 267.538 379.964 264.228C372.298 260.918 365.852 256.388 360.626 250.639C355.399 244.89 351.392 238.095 348.605 230.255C345.991 222.241 344.685 213.53 344.685 204.122V182.955C344.685 173.547 345.991 164.923 348.605 157.083C351.392 149.069 355.399 142.188 360.626 136.439C365.852 130.689 372.298 126.16 379.964 122.85C387.804 119.539 396.863 117.884 407.142 117.884C417.421 117.884 426.393 119.539 434.059 122.85C441.899 126.16 448.432 130.689 453.658 136.439C458.885 142.188 462.805 149.069 465.418 157.083C468.206 164.923 469.599 173.547 469.599 182.955V204.122ZM435.104 182.955C435.104 172.153 432.752 163.617 428.048 157.345C423.344 150.899 416.376 147.676 407.142 147.676C397.909 147.676 390.94 150.899 386.236 157.345C381.532 163.617 379.18 172.153 379.18 182.955V204.122C379.18 214.924 381.532 223.548 386.236 229.994C390.94 236.266 397.909 239.402 407.142 239.402C416.376 239.402 423.344 236.266 428.048 229.994C432.752 223.548 435.104 214.924 435.104 204.122V182.955ZM616 255.343C616 257.259 615.564 258.74 614.693 259.785C613.822 260.656 611.906 261.527 608.944 262.398C600.756 264.489 592.045 266.144 582.811 267.364C573.578 268.583 564.78 269.193 556.417 269.193C535.337 269.193 519.657 263.444 509.378 251.945C499.099 240.273 493.96 224.158 493.96 203.6V183.478C493.96 162.92 499.099 146.892 509.378 135.393C519.657 123.721 535.337 117.884 556.417 117.884C559.553 117.884 563.299 118.059 567.654 118.407C572.01 118.581 576.627 119.017 581.505 119.714V73.4587C581.505 72.0649 582.027 70.8454 583.073 69.8001C584.118 68.7548 585.338 68.2321 586.731 68.2321H610.773C612.167 68.2321 613.387 68.7548 614.432 69.8001C615.477 70.8454 616 72.0649 616 73.4587V255.343ZM581.505 147.937C577.846 147.414 573.491 146.979 568.438 146.63C563.56 146.282 559.553 146.108 556.417 146.108C550.842 146.108 546.225 147.066 542.567 148.982C538.908 150.899 536.034 153.512 533.943 156.822C531.852 160.132 530.372 164.052 529.501 168.582C528.804 173.112 528.455 178.077 528.455 183.478V203.6C528.455 209.001 528.804 213.966 529.501 218.495C530.372 223.025 531.852 226.945 533.943 230.255C536.034 233.565 538.908 236.179 542.567 238.095C546.225 240.011 550.842 240.97 556.417 240.97C561.121 240.97 565.825 240.795 570.529 240.447C575.407 240.099 579.066 239.663 581.505 239.14V147.937ZM686.075 94.8875C686.075 96.2813 685.552 97.5008 684.507 98.5461C683.461 99.5914 682.242 100.114 680.848 100.114H655.499C654.105 100.114 652.799 99.5914 651.579 98.5461C650.534 97.5008 650.011 96.2813 650.011 94.8875V71.8907C650.011 70.4969 650.534 69.2774 651.579 68.2321C652.799 67.1868 654.105 66.6641 655.499 66.6641H680.848C682.242 66.6641 683.461 67.1868 684.507 68.2321C685.552 69.2774 686.075 70.4969 686.075 71.8907V94.8875ZM685.291 261.614C685.291 263.008 684.768 264.315 683.723 265.534C682.677 266.58 681.458 267.102 680.064 267.102H656.022C654.628 267.102 653.409 266.58 652.363 265.534C651.318 264.315 650.795 263.008 650.795 261.614V124.94C650.795 123.546 651.318 122.327 652.363 121.282C653.409 120.236 654.628 119.714 656.022 119.714H680.064C681.458 119.714 682.677 120.236 683.723 121.282C684.768 122.327 685.291 123.546 685.291 124.94V261.614ZM840.67 261.614C840.67 263.008 840.148 264.315 839.102 265.534C838.057 266.58 836.837 267.102 835.444 267.102H811.401C810.008 267.102 808.788 266.58 807.743 265.534C806.698 264.315 806.175 263.008 806.175 261.614V176.422C806.175 170.672 805.914 165.969 805.391 162.31C805.043 158.477 804.084 155.516 802.516 153.425C801.123 151.16 798.945 149.592 795.983 148.721C793.021 147.676 789.014 147.153 783.962 147.153C779.432 147.153 774.729 148.024 769.85 149.766C765.147 151.334 760.007 153.599 754.432 156.561V261.614C754.432 263.008 753.909 264.315 752.864 265.534C751.819 266.58 750.599 267.102 749.206 267.102H725.163C723.77 267.102 722.55 266.58 721.505 265.534C720.46 264.315 719.937 263.008 719.937 261.614V124.94C719.937 123.546 720.46 122.327 721.505 121.282C722.55 120.236 723.77 119.714 725.163 119.714H747.899C749.293 119.714 750.512 120.236 751.557 121.282C752.603 122.327 753.125 123.546 753.125 124.94V130.428C756.958 127.989 760.443 125.985 763.579 124.418C766.889 122.85 770.199 121.63 773.509 120.759C776.819 119.714 780.216 119.017 783.701 118.668C787.185 118.146 791.105 117.884 795.461 117.884C804.868 117.884 812.534 119.365 818.457 122.327C824.381 125.289 828.91 129.383 832.046 134.609C835.357 139.836 837.621 146.021 838.841 153.164C840.06 160.307 840.67 168.059 840.67 176.422V261.614ZM1002.9 137.745C1002.9 139.662 1002.55 140.968 1001.86 141.665C1001.33 142.188 1000.29 142.798 998.72 143.494L990.096 146.892C992.187 149.853 993.755 152.989 994.8 156.299C996.02 159.435 996.63 163.268 996.63 167.798V169.627C996.63 186.004 991.229 198.025 980.427 205.69C969.8 213.356 954.556 217.189 934.695 217.189C927.726 217.189 921.89 216.753 917.186 215.882C912.482 214.837 908.824 213.792 906.21 212.746C903.249 214.663 901.768 216.927 901.768 219.541C901.768 222.154 902.465 224.07 903.858 225.29C905.426 226.509 907.691 227.468 910.653 228.165L941.489 235.482C950.375 237.572 958.389 239.663 965.532 241.754C972.849 243.67 979.034 246.109 984.086 249.071C989.138 252.032 993.058 255.778 995.846 260.308C998.633 264.663 1000.03 270.325 1000.03 277.294V279.123C1000.03 292.538 994.887 302.73 984.609 309.699C974.504 316.667 958.302 320.152 936.002 320.152C914.747 320.152 898.632 316.319 887.656 308.653C876.68 301.162 871.192 290.535 871.192 276.771V274.42C871.192 269.019 872.325 263.879 874.59 259.001C877.029 253.949 880.339 249.506 884.52 245.673C880.861 242.886 877.987 239.402 875.896 235.22C873.806 230.865 872.76 226.335 872.76 221.631V221.37C872.76 217.363 873.631 213.443 875.374 209.61C877.116 205.777 879.729 202.642 883.213 200.203C879.206 196.195 876.419 191.753 874.851 186.875C873.283 181.997 872.499 176.247 872.499 169.627V167.798C872.499 161.178 873.631 154.993 875.896 149.244C878.161 143.494 881.733 138.442 886.611 134.087C891.663 129.557 898.109 126.073 905.949 123.634C913.789 121.02 923.371 119.714 934.695 119.714H995.846C997.762 119.714 999.417 120.411 1000.81 121.804C1002.2 123.198 1002.9 124.853 1002.9 126.769V137.745ZM962.657 168.321C962.657 165.185 962.221 162.31 961.35 159.697C960.653 156.909 959.26 154.557 957.169 152.641C955.078 150.55 952.204 148.982 948.545 147.937C944.887 146.717 940.27 146.108 934.695 146.108C929.12 146.108 924.503 146.717 920.845 147.937C917.186 148.982 914.311 150.55 912.221 152.641C910.13 154.557 908.649 156.909 907.778 159.697C906.907 162.31 906.472 165.185 906.472 168.321V170.411C906.472 172.85 906.82 175.289 907.517 177.728C908.214 180.167 909.52 182.432 911.437 184.523C913.527 186.439 916.402 188.007 920.061 189.227C923.719 190.446 928.597 191.056 934.695 191.056C945.496 191.056 952.814 189.227 956.646 185.568C960.653 181.91 962.657 176.857 962.657 170.411V168.321ZM965.532 277.294C965.532 275.9 965.183 274.594 964.486 273.374C963.964 272.155 962.57 270.935 960.305 269.716C958.214 268.496 955.078 267.277 950.897 266.057C946.89 264.663 941.489 263.182 934.695 261.614L911.437 256.127C909.52 258.914 907.952 261.527 906.733 263.966C905.513 266.231 904.904 269.716 904.904 274.42V276.771C904.904 279.385 905.339 281.737 906.21 283.827C907.256 286.092 908.911 287.921 911.175 289.315C913.615 290.883 916.838 292.016 920.845 292.712C924.852 293.584 929.904 294.019 936.002 294.019C942.273 294.019 947.326 293.671 951.159 292.974C954.991 292.277 957.953 291.319 960.044 290.099C962.309 288.88 963.789 287.312 964.486 285.395C965.183 283.653 965.532 281.562 965.532 279.123V277.294Z" fill="#223B55"/>
<path d="M1139.83 260.047C1139.83 261.963 1139.4 263.27 1138.53 263.966C1137.83 264.663 1136.52 265.186 1134.61 265.534C1132.69 266.057 1129.9 266.58 1126.24 267.102C1122.76 267.451 1118.93 267.799 1114.75 268.148C1110.56 268.496 1106.3 268.757 1101.94 268.932C1097.59 269.106 1093.67 269.193 1090.18 269.193C1081.64 269.193 1073.72 268.496 1066.4 267.102C1059.08 265.709 1052.72 263.095 1047.32 259.263C1041.92 255.256 1037.65 249.768 1034.52 242.799C1031.38 235.83 1029.81 226.771 1029.81 215.621V78.1625C1029.81 76.7688 1030.34 75.5493 1031.38 74.504C1032.43 73.4587 1033.65 72.936 1035.04 72.936H1060.91C1062.31 72.936 1063.53 73.4587 1064.57 74.504C1065.62 75.5493 1066.14 76.7688 1066.14 78.1625V215.621C1066.14 224.332 1067.62 230.255 1070.58 233.391C1073.54 236.527 1078.86 238.095 1086.52 238.095H1134.61C1136 238.095 1137.22 238.618 1138.27 239.663C1139.31 240.708 1139.83 241.928 1139.83 243.322V260.047ZM1271.18 261.876C1271.18 263.27 1270.66 264.489 1269.61 265.534C1268.57 266.58 1267.35 267.102 1265.96 267.102H1243.74C1242.35 267.102 1241.13 266.58 1240.08 265.534C1239.04 264.489 1238.52 263.27 1238.52 261.876V257.695C1232.42 261.353 1226.32 264.228 1220.22 266.318C1214.13 268.235 1207.94 269.193 1201.67 269.193C1196.27 269.193 1190.87 268.583 1185.47 267.364C1180.07 266.144 1175.19 263.879 1170.83 260.569C1166.65 257.259 1163.17 252.816 1160.38 247.241C1157.77 241.666 1156.46 234.436 1156.46 225.551V224.506C1156.46 209.523 1161.43 198.286 1171.36 190.795C1181.29 183.129 1197.58 179.296 1220.22 179.296H1236.69V167.798C1236.69 159.261 1234.77 153.599 1230.94 150.812C1227.28 148.024 1221.53 146.63 1213.69 146.63C1205.33 146.63 1197.23 146.892 1189.39 147.414C1181.55 147.763 1175.45 148.198 1171.09 148.721H1169.79C1168.39 148.721 1167.26 148.46 1166.39 147.937C1165.52 147.414 1165.08 146.195 1165.08 144.278V127.553C1165.08 124.592 1166.74 122.762 1170.05 122.066C1175.28 121.02 1181.55 120.062 1188.86 119.191C1196.36 118.32 1204.63 117.884 1213.69 117.884C1232.33 117.884 1246.53 121.978 1256.29 130.167C1266.22 138.355 1271.18 150.899 1271.18 167.798V261.876ZM1236.69 202.293H1220.22C1214.3 202.293 1209.42 202.816 1205.59 203.861C1201.93 204.732 1198.97 206.126 1196.7 208.042C1194.61 209.785 1193.13 212.049 1192.26 214.837C1191.56 217.624 1191.22 220.847 1191.22 224.506V225.551C1191.22 231.997 1192.7 236.353 1195.66 238.618C1198.62 240.708 1203.41 241.754 1210.03 241.754C1214.74 241.754 1219.35 241.057 1223.88 239.663C1228.59 238.269 1232.85 236.527 1236.69 234.436V202.293ZM1427.16 203.6C1427.16 224.158 1422.02 240.273 1411.74 251.945C1401.46 263.444 1385.78 269.193 1364.7 269.193C1356.34 269.193 1347.54 268.583 1338.31 267.364C1329.07 266.144 1320.36 264.489 1312.17 262.398C1309.21 261.527 1307.29 260.656 1306.42 259.785C1305.55 258.74 1305.12 257.259 1305.12 255.343V73.4587C1305.12 72.0649 1305.64 70.8454 1306.68 69.8001C1307.73 68.7548 1308.95 68.2321 1310.34 68.2321H1334.39C1335.78 68.2321 1337 68.7548 1338.04 69.8001C1339.09 70.8454 1339.61 72.0649 1339.61 73.4587V119.714C1344.49 119.017 1349.11 118.581 1353.46 118.407C1357.82 118.059 1361.56 117.884 1364.7 117.884C1385.78 117.884 1401.46 123.721 1411.74 135.393C1422.02 146.892 1427.16 162.92 1427.16 183.478V203.6ZM1392.66 183.478C1392.66 178.077 1392.23 173.112 1391.35 168.582C1390.66 164.052 1389.26 160.132 1387.17 156.822C1385.08 153.512 1382.21 150.899 1378.55 148.982C1374.89 147.066 1370.27 146.108 1364.7 146.108C1361.56 146.108 1357.47 146.282 1352.42 146.63C1347.54 146.979 1343.27 147.414 1339.61 147.937V239.14C1342.05 239.663 1345.62 240.099 1350.33 240.447C1355.2 240.795 1360 240.97 1364.7 240.97C1370.27 240.97 1374.89 240.011 1378.55 238.095C1382.21 236.179 1385.08 233.565 1387.17 230.255C1389.26 226.945 1390.66 223.025 1391.35 218.495C1392.23 213.966 1392.66 209.001 1392.66 203.6V183.478Z" fill="#1CD49C"/>
<path d="M5.88273 85.1645H29.6936V135.176C29.6936 135.176 39.4445 123.428 55.887 135.176C72.5574 147.083 74.933 147.083 108.274 132.793V85.1645H132.085C132.085 85.1645 143.99 97.0716 124.944 101.837C117.804 101.837 122.562 218.526 122.562 218.526C122.562 218.526 127.327 235.199 105.891 254.248C91.6033 270.92 27.3181 282.828 15.4126 218.526C13.0301 142.317 10.6477 108.979 13.0301 104.22C14.8671 103.364 10.406 102.348 8.84528 101.057C-3.64025 99.4475 -1.26468 85.1645 5.88273 85.1645Z" fill="#223B55"/>
<path d="M65.3972 125.54C74.598 125.54 82.0568 118.081 82.0568 108.88C82.0568 99.6791 74.598 92.2203 65.3972 92.2203C56.1963 92.2203 48.7375 99.6791 48.7375 108.88C48.7375 118.081 56.1963 125.54 65.3972 125.54Z" fill="#1CD49C"/>
<path d="M54.6827 47.0106C61.9352 47.0106 67.8144 41.1606 67.8144 33.9443C67.8144 26.7279 61.9352 20.8779 54.6827 20.8779C47.4303 20.8779 41.551 26.7279 41.551 33.9443C41.551 41.1606 47.4303 47.0106 54.6827 47.0106Z" fill="#1CD49C"/>
<path d="M88.0021 80.3299C95.2545 80.3299 101.134 74.4799 101.134 67.2635C101.134 60.0472 95.2545 54.1971 88.0021 54.1971C80.7496 54.1971 74.8704 60.0472 74.8704 67.2635C74.8704 74.4799 80.7496 80.3299 88.0021 80.3299Z" fill="#223B55"/>
</svg>
